<svg xmlns="http://www.w3.org/2000/svg" width="30" height="30" viewBox="0 0 30 30">
  <g id="correct" transform="translate(-0.008)">
    <path id="Path_6954" data-name="Path 6954" d="M35.1,15.262l-3.677-1.636L29.785,9.947l-4,.418L22.528,8,19.27,10.365l-4-.418-1.636,3.677L9.955,15.262l.418,4L8.012,22.52l2.361,3.258-.418,4,3.677,1.636,1.638,3.679,4-.418,3.256,2.361,3.258-2.361,4,.418,1.636-3.677L35.1,29.778l-.418-4,2.361-3.256-2.361-3.258ZM19.624,28.326l-4.108-4.108,1.369-1.364,2.739,2.734,8.211-8.211L29.2,18.745Zm0,0" transform="translate(-7.52 -7.52)" fill="#57a4ff"/>
    <g id="Group_961" data-name="Group 961" transform="translate(0.008)">
      <path id="Path_6955" data-name="Path 6955" d="M29.915,14.716l-2.253-3.108.4-3.817a.484.484,0,0,0-.285-.493L24.27,5.738,22.71,2.231a.487.487,0,0,0-.493-.285l-3.818.4L15.292.092a.484.484,0,0,0-.568,0L11.616,2.345,7.8,1.946a.49.49,0,0,0-.493.284L5.745,5.737,2.238,7.3a.484.484,0,0,0-.284.492l.4,3.817L.1,14.716a.484.484,0,0,0,0,.568l2.253,3.108-.4,3.818a.484.484,0,0,0,.284.493l3.507,1.56,1.56,3.507a.489.489,0,0,0,.493.285l3.817-.4,3.108,2.253a.484.484,0,0,0,.568,0L18.4,27.655l3.818.4a.487.487,0,0,0,.493-.284l1.56-3.507L27.777,22.7a.484.484,0,0,0,.285-.492l-.4-3.818,2.253-3.108A.484.484,0,0,0,29.915,14.716ZM26.77,17.974a.483.483,0,0,0-.09.334l.381,3.652-3.356,1.494a.48.48,0,0,0-.246.245l-1.493,3.356-3.653-.382a.483.483,0,0,0-.334.09l-2.973,2.155-2.974-2.155a.479.479,0,0,0-.284-.092.315.315,0,0,0-.048,0l-3.653.382L6.556,23.7a.484.484,0,0,0-.246-.246L2.953,21.96l.381-3.652a.485.485,0,0,0-.09-.334L1.089,15l2.155-2.974a.485.485,0,0,0,.09-.334L2.953,8.039,6.308,6.546A.48.48,0,0,0,6.554,6.3L8.047,2.945l3.653.382a.488.488,0,0,0,.334-.09l2.974-2.155,2.974,2.155a.486.486,0,0,0,.334.09l3.653-.382L23.461,6.3a.484.484,0,0,0,.246.246l3.356,1.493-.381,3.652a.483.483,0,0,0,.09.334L28.926,15Zm0,0" transform="translate(-0.008)" fill="#1e81ce"/>
      <ellipse id="Ellipse_97" data-name="Ellipse 97" cx="9.564" cy="9.564" rx="9.564" ry="9.564" transform="translate(5.57 5.57)" fill="#57a4ff"/>
      <path id="Path_6963" data-name="Path 6963" d="M154.956,167.359l-7.731,7.731a1.188,1.188,0,0,1-1.682,0l-3.866-3.866a1.189,1.189,0,0,1,1.682-1.682l3.025,3.025,6.89-6.89a1.189,1.189,0,1,1,1.682,1.682Zm0,0" transform="translate(-133.592 -155.2)" fill="#fafafa"/>
    </g>
  </g>
</svg>
