<svg xmlns="http://www.w3.org/2000/svg" width="30" height="23.571" viewBox="0 0 30 23.571">
  <g id="envelope" transform="translate(0 -54.82)">
    <g id="Group_972" data-name="Group 972" transform="translate(0 54.82)">
      <path id="Path_7001" data-name="Path 7001" d="M2.879,62.041q.569.4,3.432,2.371T10.7,67.449q.167.117.711.508t.9.632q.36.241.871.541a5.065,5.065,0,0,0,.963.449,2.667,2.667,0,0,0,.837.15h.034a2.669,2.669,0,0,0,.837-.15,5.071,5.071,0,0,0,.963-.449q.51-.3.87-.541t.9-.632q.544-.391.712-.508,1.54-1.065,7.835-5.408a7.928,7.928,0,0,0,2.042-2.047A4.376,4.376,0,0,0,30,57.482a2.542,2.542,0,0,0-.8-1.88,2.6,2.6,0,0,0-1.883-.782H2.678a2.4,2.4,0,0,0-1.984.865A3.345,3.345,0,0,0,0,57.848a3.873,3.873,0,0,0,.921,2.271A8.286,8.286,0,0,0,2.879,62.041Z" transform="translate(0 -54.82)" fill="#8e8f90"/>
      <path id="Path_7002" data-name="Path 7002" d="M28.326,185.9q-5.49,3.727-8.337,5.793-.954.7-1.549,1.1a9.546,9.546,0,0,1-1.582.806,4.805,4.805,0,0,1-1.841.411h-.034a4.807,4.807,0,0,1-1.841-.411,9.551,9.551,0,0,1-1.582-.806q-.594-.394-1.548-1.1-2.26-1.662-8.32-5.793A8.875,8.875,0,0,1,0,184.437v13.331a2.59,2.59,0,0,0,.787,1.9,2.575,2.575,0,0,0,1.892.789H27.322A2.691,2.691,0,0,0,30,197.768V184.437A9.24,9.24,0,0,1,28.326,185.9Z" transform="translate(0 -176.883)" fill="#8e8f90"/>
    </g>
  </g>
</svg>
