<svg xmlns="http://www.w3.org/2000/svg" width="58" height="58" viewBox="0 0 58 58">
  <g id="facebook" transform="translate(0 0.362)">
    <circle id="_20633556_136014470332029_3800016982795878400_n" data-name="20633556_136014470332029_3800016982795878400_n" cx="29" cy="29" r="29" transform="translate(0 -0.362)" fill="#558bff"/>
    <g id="facebook-logo" transform="translate(20.658 13.974)">
      <path id="Path_6953" data-name="Path 6953" d="M37.263.006,33.478,0c-4.252,0-7,2.819-7,7.183v3.312H22.672a.6.6,0,0,0-.6.6v4.8a.6.6,0,0,0,.6.6h3.806V28.592a.6.6,0,0,0,.6.6h4.965a.6.6,0,0,0,.6-.6V16.484h4.45a.6.6,0,0,0,.6-.6l0-4.8a.6.6,0,0,0-.6-.6H32.633V7.687c0-1.349.322-2.034,2.079-2.034h2.55a.6.6,0,0,0,.595-.6V.6A.6.6,0,0,0,37.263.006Z" transform="translate(-22.077 0)" fill="#fff"/>
    </g>
  </g>
</svg>
