<svg xmlns="http://www.w3.org/2000/svg" width="30" height="28.378" viewBox="0 0 30 28.378">
  <g id="key" transform="translate(0 -12.991)">
    <path id="Path_7000" data-name="Path 7000" d="M26.1,32.848q.383.41.687.713t.651.588a1.032,1.032,0,0,0,.508.285q.3,0,1.176-.873T30,32.385q0-.143-.508-.731t-1.3-1.39q-.793-.8-1.542-1.533t-1.462-1.417q-.713-.686-.82-.793a.564.564,0,0,0-.41-.178q-.3,0-1.176.873t-.873,1.176a1.032,1.032,0,0,0,.285.508q.285.347.588.651t.713.686q.41.383.463.437l-1.711,1.711-6.328-6.328a10.762,10.762,0,0,0,2.336-6.506,6.263,6.263,0,0,0-6.56-6.56,10.459,10.459,0,0,0-5.579,1.693A13.55,13.55,0,0,0,1.693,19.1,10.458,10.458,0,0,0,0,24.684a6.4,6.4,0,0,0,1.827,4.733A6.4,6.4,0,0,0,6.56,31.244a10.763,10.763,0,0,0,6.506-2.335L25.027,40.87a1.65,1.65,0,0,0,1.212.5,2.427,2.427,0,0,0,2.139-2.139,1.65,1.65,0,0,0-.5-1.212L23.958,34.1l1.711-1.711Q25.722,32.439,26.1,32.848ZM13.833,22.26a3.3,3.3,0,0,1-2.424,1,3.487,3.487,0,0,1-1.48-.339,3.489,3.489,0,0,1,.339,1.48,3.408,3.408,0,0,1-3.422,3.422,3.428,3.428,0,0,1-2.424-5.846,3.3,3.3,0,0,1,2.424-1,3.489,3.489,0,0,1,1.479.339,3.489,3.489,0,0,1-.339-1.48,3.408,3.408,0,0,1,3.422-3.422,3.429,3.429,0,0,1,2.424,5.847Z" fill="#8e8f90"/>
  </g>
</svg>
