<svg xmlns="http://www.w3.org/2000/svg" width="39.26" height="35.334" viewBox="0 0 39.26 35.334">
  <g id="menu" transform="translate(21 -30.599)">
    <g id="_x33__6_" transform="translate(0 30.599)">
      <g id="Group_970" data-name="Group 970" transform="translate(0 0)">
        <path id="Path_6998" data-name="Path 6998" d="M37.3,62.007H1.963a1.963,1.963,0,0,0,0,3.926H37.3a1.963,1.963,0,0,0,0-3.926ZM1.963,34.525H37.3a1.963,1.963,0,0,0,0-3.926H1.963a1.963,1.963,0,0,0,0,3.926ZM37.3,46.3H1.963a1.963,1.963,0,0,0,0,3.926H37.3a1.963,1.963,0,0,0,0-3.926Z" transform="translate(-21 -30.599)" fill="#fff"/>
      </g>
    </g>
  </g>
</svg>
