<svg id="Group_15" data-name="Group 15" xmlns="http://www.w3.org/2000/svg" width="36.426" height="27.721" viewBox="0 0 36.426 27.721">
  <path id="Path_573" data-name="Path 573" d="M31.98,57.75H4.454A4.458,4.458,0,0,0,0,62.2V81.017a4.458,4.458,0,0,0,4.454,4.454H31.972a4.458,4.458,0,0,0,4.454-4.454v-18.8A4.453,4.453,0,0,0,31.98,57.75ZM34.4,81.017a2.422,2.422,0,0,1-2.419,2.419H4.454a2.422,2.422,0,0,1-2.419-2.419v-18.8a2.422,2.422,0,0,1,2.419-2.419H31.972a2.422,2.422,0,0,1,2.419,2.419v18.8Z" transform="translate(0 -57.75)" fill="#2ebdfc"/>
  <path id="Path_574" data-name="Path 574" d="M74.523,118.674l8.909-7.989a1.019,1.019,0,1,0-1.364-1.515L69.782,120.2l-2.4-2.141c-.008-.008-.015-.015-.015-.023a1.508,1.508,0,0,0-.166-.143l-9.753-8.728a1.02,1.02,0,1,0-1.357,1.522l9.014,8.057-8.977,8.4a1.022,1.022,0,0,0-.045,1.44,1.041,1.041,0,0,0,.746.324,1.02,1.02,0,0,0,.693-.271l9.112-8.524,2.472,2.208a1.015,1.015,0,0,0,1.357-.008l2.54-2.276,9.059,8.607a1.02,1.02,0,0,0,1.44-.038,1.022,1.022,0,0,0-.038-1.44Z" transform="translate(-51.55 -105.047)" fill="#2ebdfc"/>
</svg>
