<svg xmlns="http://www.w3.org/2000/svg" width="28.757" height="35.065" viewBox="0 0 28.757 35.065">
  <g id="lock_1_" data-name="lock (1)" transform="translate(-4.5 0.5)">
    <path id="Path_6950" data-name="Path 6950" d="M28.972,12.688V9.147C28.972,4.1,24.444,0,18.878,0S8.785,4.1,8.785,9.147v3.541A4.564,4.564,0,0,0,5,17.178V29.506a4.565,4.565,0,0,0,4.56,4.56H28.2a4.566,4.566,0,0,0,4.56-4.56V17.177A4.564,4.564,0,0,0,28.972,12.688ZM10.047,9.147c0-4.348,3.962-7.885,8.832-7.885S27.71,4.8,27.71,9.147v3.47H10.047ZM31.5,29.5a3.3,3.3,0,0,1-3.3,3.3H9.56a3.3,3.3,0,0,1-3.3-3.3V17.177a3.3,3.3,0,0,1,3.3-3.3H28.2a3.3,3.3,0,0,1,3.3,3.3Z" fill="#2fbfff" stroke="#2fbdfd" stroke-width="1"/>
    <path id="Path_6951" data-name="Path 6951" d="M25.523,28A2.526,2.526,0,0,0,23,30.523v3.785a2.523,2.523,0,0,0,5.047,0V30.523A2.526,2.526,0,0,0,25.523,28Zm1.262,6.308a1.262,1.262,0,0,1-2.523,0V30.523a1.262,1.262,0,0,1,2.523,0Z" transform="translate(-6.645 -10.337)" fill="#2ebdfc" stroke="#2fbfff" stroke-width="1"/>
  </g>
</svg>
