<svg xmlns="http://www.w3.org/2000/svg" width="27.844" height="36.014" viewBox="0 0 27.844 36.014">
  <path id="user_3_" data-name="user (3)" d="M30.934,25.029,25.36,22.241a1.535,1.535,0,0,1-.853-1.38V18.888c.134-.163.274-.35.42-.555a13.356,13.356,0,0,0,1.724-3.384,2.315,2.315,0,0,0,1.358-2.111V10.5a2.327,2.327,0,0,0-.584-1.532v-3.1A5.231,5.231,0,0,0,26.2,2.061C25.005.693,23.06,0,20.422,0S15.839.693,14.64,2.06a5.233,5.233,0,0,0-1.221,3.808v3.1a2.327,2.327,0,0,0-.584,1.532v2.334a2.321,2.321,0,0,0,.874,1.814,12.248,12.248,0,0,0,2.044,4.223v1.931a1.542,1.542,0,0,1-.8,1.354L9.744,25A5.262,5.262,0,0,0,7,29.623v1.89c0,2.77,8.78,3.5,13.422,3.5s13.422-.732,13.422-3.5V29.737A5.236,5.236,0,0,0,30.934,25.029Zm1.743,6.484c0,.792-4.325,2.334-12.255,2.334S8.167,32.3,8.167,31.513v-1.89a4.094,4.094,0,0,1,2.135-3.6l5.206-2.84a2.71,2.71,0,0,0,1.412-2.379V18.462l-.136-.162a11.017,11.017,0,0,1-1.99-4.123l-.053-.231-.2-.128a1.164,1.164,0,0,1-.54-.979V10.5a1.152,1.152,0,0,1,.391-.861l.193-.173V5.836l-.005-.076a4.052,4.052,0,0,1,.937-2.93c.967-1.1,2.617-1.662,4.9-1.662s3.926.555,4.894,1.65a4.107,4.107,0,0,1,.947,2.942L26.258,9.47l.193.174a1.15,1.15,0,0,1,.391.86v2.334a1.161,1.161,0,0,1-.83,1.108l-.291.089-.093.289a12.217,12.217,0,0,1-1.654,3.334,7.678,7.678,0,0,1-.488.63l-.145.166v2.407a2.7,2.7,0,0,0,1.5,2.424l5.575,2.787a4.075,4.075,0,0,1,2.265,3.665Z" transform="translate(-6.5 0.5)" fill="#2ebbf9" stroke="#2fbefe" stroke-width="1"/>
</svg>
