<?xml version="1.0" encoding="utf-8"?>
<!-- Generator: Adobe Illustrator 16.0.0, SVG Export Plug-In . SVG Version: 6.00 Build 0)  -->
<!DOCTYPE svg PUBLIC "-//W3C//DTD SVG 1.1//EN" "http://www.w3.org/Graphics/SVG/1.1/DTD/svg11.dtd">
<svg version="1.1" id="Group_15" xmlns="http://www.w3.org/2000/svg" xmlns:xlink="http://www.w3.org/1999/xlink" x="0px" y="0px"
	 width="36.426px" height="27.721px" viewBox="0 0 36.426 27.721" enable-background="new 0 0 36.426 27.721" xml:space="preserve">
<path id="Path_573" fill="#F35414" d="M31.98,0H4.454C1.997,0.002,0.004,1.992,0,4.45v18.816c0.002,2.459,1.995,4.452,4.454,4.454
	h27.519c2.459-0.002,4.451-1.995,4.453-4.454v-18.8C36.434,2.008,34.446,0.008,31.986,0C31.984,0,31.982,0,31.98,0z M34.4,23.267
	c-0.002,1.336-1.084,2.418-2.42,2.419H4.454c-1.335-0.001-2.417-1.083-2.419-2.419v-18.8C2.037,3.132,3.119,2.05,4.454,2.048h27.519
	c1.334,0.002,2.416,1.084,2.418,2.419v18.8H34.4z"/>
<path id="Path_574" fill="#F35414" d="M22.973,13.627l8.909-7.989c0.419-0.377,0.452-1.021,0.075-1.439
	c-0.376-0.418-1.021-0.452-1.439-0.075l0,0L18.232,15.153l-2.4-2.141c-0.008-0.008-0.015-0.015-0.015-0.022
	c-0.052-0.052-0.107-0.1-0.166-0.144L5.898,4.118c-0.409-0.388-1.055-0.37-1.442,0.039S4.086,5.212,4.496,5.6
	c0.015,0.014,0.03,0.027,0.045,0.04l9.014,8.058l-8.977,8.399c-0.408,0.386-0.429,1.029-0.045,1.44
	c0.194,0.204,0.463,0.321,0.746,0.323c0.257,0.001,0.504-0.096,0.693-0.271l9.112-8.524l2.472,2.208
	c0.388,0.345,0.973,0.342,1.357-0.008l2.54-2.275l9.059,8.606c0.408,0.387,1.053,0.369,1.44-0.038
	c0.386-0.408,0.368-1.052-0.038-1.439L22.973,13.627z"/>
</svg>
