<svg xmlns="http://www.w3.org/2000/svg" width="58" height="58" viewBox="0 0 58 58">
  <g id="snapchat" transform="translate(0.096 0.362)">
    <circle id="_58818509_2189919258005180_5237255271497910256_n" data-name="58818509_2189919258005180_5237255271497910256_n" cx="29" cy="29" r="29" transform="translate(-0.096 -0.362)" fill="#ffeb3b"/>
    <path id="snapchat-2" data-name="snapchat" d="M29.417,36.994c-4.011-.66-5.819-4.769-5.893-4.944a.283.283,0,0,0-.017-.034A1.24,1.24,0,0,1,23.367,31c.219-.514,1.06-.78,1.615-.956.161-.051.313-.1.439-.148a3.4,3.4,0,0,0,1.2-.715,1.136,1.136,0,0,0,.364-.818,1.287,1.287,0,0,0-.964-1.116,1.742,1.742,0,0,0-.653-.124,1.453,1.453,0,0,0-.608.124,3.41,3.41,0,0,1-1.251.356,1.148,1.148,0,0,1-.414-.09c.011-.188.023-.381.036-.579l.006-.086c.129-2.031.289-4.557-.383-6.058a8.148,8.148,0,0,0-1.836-2.627,7.678,7.678,0,0,0-2.2-1.448,8.677,8.677,0,0,0-3.426-.724h-.075l-.516.006a8.71,8.71,0,0,0-3.43.724,7.635,7.635,0,0,0-2.189,1.446,8.175,8.175,0,0,0-1.829,2.622c-.671,1.5-.512,4.025-.384,6.054v0c.013.218.028.444.041.666a1.2,1.2,0,0,1-.491.092,3.254,3.254,0,0,1-1.337-.358,1.2,1.2,0,0,0-.508-.105,1.8,1.8,0,0,0-.9.251,1.243,1.243,0,0,0-.636.812,1.12,1.12,0,0,0,.428,1.052,3.688,3.688,0,0,0,1.118.64c.128.051.279.1.439.148.555.176,1.4.443,1.617.956a1.249,1.249,0,0,1-.143,1.02.266.266,0,0,0-.015.034,9.931,9.931,0,0,1-1.512,2.337A8.482,8.482,0,0,1,3.148,36a6.708,6.708,0,0,1-2.56,1A.7.7,0,0,0,0,37.724a.889.889,0,0,0,.073.306v0a1.874,1.874,0,0,0,1.016.868,11.608,11.608,0,0,0,2.935.763,3.561,3.561,0,0,1,.18.645c.049.225.1.458.173.7a.769.769,0,0,0,.8.585,3.917,3.917,0,0,0,.69-.1,7.848,7.848,0,0,1,1.573-.178,6.838,6.838,0,0,1,1.125.1,5.345,5.345,0,0,1,2.1,1.086,6.807,6.807,0,0,0,4.145,1.615q.076,0,.152-.006c.06,0,.137.006.216.006a6.817,6.817,0,0,0,4.145-1.613l0,0a5.364,5.364,0,0,1,2.1-1.084,6.838,6.838,0,0,1,1.125-.1,7.885,7.885,0,0,1,1.573.167,3.8,3.8,0,0,0,.69.084h.034A.76.76,0,0,0,25.629,41c.071-.242.122-.467.173-.7a3.683,3.683,0,0,1,.178-.641,11.689,11.689,0,0,0,2.935-.763,1.882,1.882,0,0,0,1.015-.866A.891.891,0,0,0,30,37.722.7.7,0,0,0,29.417,36.994Z" transform="translate(14.066 -1.293)" fill="#fff" stroke="#000" stroke-width="1"/>
  </g>
</svg>
